<?xml version="1.0" standalone="no"?><!DOCTYPE svg PUBLIC "-//W3C//DTD SVG 1.1//EN" "http://www.w3.org/Graphics/SVG/1.1/DTD/svg11.dtd"><svg t="1653294158531" class="icon" viewBox="0 0 1024 1024" version="1.1" xmlns="http://www.w3.org/2000/svg" p-id="7414" xmlns:xlink="http://www.w3.org/1999/xlink" width="200" height="200"><defs><style type="text/css">@font-face { font-family: "feedback-iconfont"; src: url("//at.alicdn.com/t/font_1031158_u69w8yhxdu.woff2?t=1630033759944") format("woff2"), url("//at.alicdn.com/t/font_1031158_u69w8yhxdu.woff?t=1630033759944") format("woff"), url("//at.alicdn.com/t/font_1031158_u69w8yhxdu.ttf?t=1630033759944") format("truetype"); }
</style></defs><path d="M162.986667 861.44h698.026666v-347.392H162.986667v347.392zM473.173333 205.226667H303.274667L186.88 436.821333h286.293333V205.226667z m77.568 0v231.594666h286.293334L720.725333 205.226667H550.826667z m383.402667 252.245333a38.314667 38.314667 0 0 1 4.437333 19.882667v422.698666c0 21.333333-17.365333 38.613333-38.826666 38.613334H124.16a38.698667 38.698667 0 0 1-38.784-38.613334v-422.698666a37.845333 37.845333 0 0 1 4.437333-19.882667L244.608 149.333333a38.826667 38.826667 0 0 1 34.688-21.333333h465.408a38.826667 38.826667 0 0 1 34.688 21.333333l154.794667 308.138667z" p-id="7415"></path></svg>