<?xml version="1.0" standalone="no"?><!DOCTYPE svg PUBLIC "-//W3C//DTD SVG 1.1//EN" "http://www.w3.org/Graphics/SVG/1.1/DTD/svg11.dtd"><svg t="1653293856790" class="icon" viewBox="0 0 1024 1024" version="1.1" xmlns="http://www.w3.org/2000/svg" p-id="3283" xmlns:xlink="http://www.w3.org/1999/xlink" width="200" height="200"><defs><style type="text/css">@font-face { font-family: "feedback-iconfont"; src: url("//at.alicdn.com/t/font_1031158_u69w8yhxdu.woff2?t=1630033759944") format("woff2"), url("//at.alicdn.com/t/font_1031158_u69w8yhxdu.woff?t=1630033759944") format("woff"), url("//at.alicdn.com/t/font_1031158_u69w8yhxdu.ttf?t=1630033759944") format("truetype"); }
</style></defs><path d="M917.504 853.504h-42.496V384c36.352 0 64-27.648 64-64v-6.656L896 177.152c-2.048-27.648-25.6-49.152-53.248-49.152H181.248c-27.648 0-51.2 21.504-53.248 49.152l-42.496 136.704v6.656c0 36.352 27.648 64 64 64v469.504h-42.496c-12.8 0-21.504 8.704-21.504 21.504s8.704 21.504 21.504 21.504h810.496c12.8 0 21.504-8.704 21.504-21.504-0.512-13.824-8.704-22.016-21.504-22.016z m-85.504 0h-298.496V384h298.496v469.504zM128 322.048l42.496-134.656v-6.656c0-6.144 4.096-10.752 10.752-10.752h661.504c6.656 0 10.752 4.096 10.752 10.752v6.656l40.448 134.656c-2.048 10.752-10.752 19.456-21.504 19.456H149.504c-10.752 0-19.456-8.704-21.504-19.456zM192 384h298.496v469.504H192V384z" p-id="3284"></path><path d="M731.648 654.848c4.096 4.096 10.752 6.656 14.848 6.656 4.096 0 10.752-2.048 14.848-6.656 8.704-8.704 8.704-21.504 0-29.696l-128-128c-8.704-8.704-21.504-8.704-29.696 0s-8.704 21.504 0 29.696l128 128z m-148.992-21.504l64 64c4.096 4.096 10.752 6.656 14.848 6.656s10.752-2.048 14.848-6.656c8.704-8.704 8.704-21.504 0-29.696l-64-64c-8.704-8.704-21.504-8.704-29.696 0-8.704 8.704-8.704 21.504 0 29.696z" p-id="3285"></path></svg>